/* XPM */
static char *result[] = {
/* columns rows colors chars-per-pixel */
"32 32 6 1 ",
"  c #C2986D",
". c #B08A63",
"X c #9E7C59",
"o c #3E734E",
"O c #4D9262",
"+ c white",
/* pixels */
"  .XXXX.XXX    .X   X. .X.   .X ",
" .X....XXX.XX..XX...X..X.     X ",
".X.    .X. ..XX..XXXXXXXX.   .X ",
"X.      X    X.  .XX....X....X.X",
"X.     .X   .X....X.    .XXXX..X",
"X.    .XX.  .XXXXXX      X... .X",
"X.   .X..X..X....X.     .X     .",
".X. .X.  .XX.    .X.   ..X.     ",
"XXXXXX.   .X.     .X...XX.X.   .",
"XX.  .X.   .X.     .XXX.. .X....",
"X.    .X. .XX.     .X..    .XXXX",
" X.   .XX.XXXX.   .XX.     .X..X",
" X. ..X..XXXXX.  .X..X.   .X. .X",
" .XXXX.  ..XXXX..X....X. ..X..X.",
" .X..X.    ..XXXXX.. ..X.XXoXX. ",
".X. .X.      .XXXX.   ..XoooX.. ",
"XX. .X.      .XXXXX.....XoOOoXX.",
" .X..XX.    .XXXXXooXXoooOOOOooX",
" .XXXX.X.  .X...XoOOooOOOOOOOOOo",
" .XX.  .X..X... .oOOOOOOOOOOOOOO",
"XXX.    .XXX..  .XoOOOOOOOOOOOOO",
"..X.    .X..X.. .XoOOOOOOOOOOOOO",
" .X.    .X. .X...oOOOOOOOOOOOOOO",
".XX.   .X.   .X..oOOOOOOOOOOOOOO",
"X.XX. ..X.    .XXoOOOOOOOOOOOOOO",
". ..XXXX.    .XooOOOOOOOOOOOOOOO",
"   .X. .X.  ..XoOOOOOOOOOOOOOOOO",
"   .X.  .X..XXooOOOOOOOOOOOOOOOO",
"   .X.   .XX..XXoOOOOOOOOOOOOOOO",
". .X.    .X. .X.XoOOOOOOOOOOOOOO",
"XXX...   .X..X..XoOOOOOOOOOOOOOO",
"   XXX. ..XXX.  .XoOOOOOOOOOOOOO"
};
