/* XPM */
static char *result[] = {
/* columns rows colors chars-per-pixel */
"32 32 6 1 ",
"  c #2F2F2E",
". c gray71",
"X c gray88",
"o c #4D9262",
"A c #3E734E",
"Y c #7AB055",
/* pixels */
"oooooooooooooooooooooooooooooooo",
"oooAoooooooooooooooooooooooooooo",
"ooAoAooooooooooooooooooooooooooo",
"oooAoooooooooooooooooooooooooooo",
"ooooooooooooYooooooooooooooooooo",
"ooooooooooooYooooooooooooooooooo",
"ooooooooooooYoYoooooooooooAooooo",
"ooooooooooooooYooooooooooAoAoooo",
"ooooooooooooooYoooooooooooAooooo",
"oooooooooooooooooooooooooooooooo",
"oooooooooooooooooooooYoooooooooo",
"oooooooooooooooooooooYYooooooooo",
"oooooooooooooooooooooYYooYoooooo",
"ooooooooooooooooooooooYAYYoooooo",
"ooooooooooooooooooooooAYYAoooooo",
"oooooooooooooooooooooooAAooooooo",
"oooooooAoooooooooooooooooooooooo",
"ooooooAoAooooooooooooooooooooooo",
"oooooooAoooooooooooooooooooooooo",
"oooooooooooooooooooooooooooooooo",
"oooooooooooooooooooooooooooooooo",
"oooooooooooooooo  oo  oooooooooo",
"ooooooooooo  ooo .    oooooooooo",
"oooooooooo X ooo .XXX oooooooooo",
"oooooooooo X ooo .X .. ooooooooo",
"oooooooooo X ooo .XXXX ooooooooo",
"oooooooooo X     ..... ooooooooo",
"ooooooooooo XXXXXXXXX oooooooooo",
"ooooooooooo XXXXXXXXX oooooooooo",
"ooooooooooo X XXX X.X oooooooooo",
"ooooooooooo .     X X oooooooooo",
"ooooooooooo  o  o  o  oooooooooo"
};
