/* XPM */
static char *result[] = {
/* columns rows colors chars-per-pixel */
"32 32 7 1 ",
"  c #604800",
". c #CB9500",
"X c #F8BB0B",
"o c #F7D76E",
"O c #4D9262",
"A c #3E734E",
"Y c #7AB055",
/* pixels */
"OOOOOOOOOOOOOOOOOOOOOOOOOOOOOOOO",
"OOOOAOOOOOOOOOOOOOOOOOOOOOYOOOOO",
"OOOAOAOOOOOOOOOOOOOOOOOOOOYOOOOO",
"OOOOAOOOOOOOOOOOOOOOOOOOOOYOYOOO",
"OOOOOOOOOOOOOOOOOOOOOOOOOOYOYOOO",
"OOOOOOOOOOOOOOO     OOOOOOOOYOOO",
"OOOOOOOOOOOOOO XXXXX OOOOOOOOOOO",
"OOOOOOOOOOOOO X..XXoX OOOOOOOOOO",
"OYOOOOOOOOOOO XXoooXX OOOOOOOOOO",
"OOYOOOOOOOOOO .XXXXX. OOOOOOOOOO",
"OYOOOOOOOOOOO o...... OOOOOOOOOO",
"OOOOOOOOOOOOO .oXXXX. OOOOOOOOOO",
"OOOOOOOOOOOOO o.....     OOOOOOO",
"OOOOOOOOOOOOO .oXXX.XXXXX OOOOOO",
"OOOOOOOOOOOOO o....X..XXoX OOOOO",
"OOOOOOOOOO     oXX.XXoooXX OOOOO",
"OOOOOOOOO XXXXX ....XXXXX. OOOOO",
"OOOOOOOO X..XXoX.X.o...... OOOOO",
"OOOOOO    XoooXX....oXXXX. OOOOO",
"OOOOO XX.X XXXX..X.o...... OOOOO",
"OOOO X.XX.. .... ...oXXXX. OOOOO",
"OOOO X.oX.. XXX. X o...... OOOOO",
"OOOO XXoX.. ....   .oXXXX. OOOOO",
"OOOO XXoX.. XXX OO o...... OOOOO",
"OOOO XoXX..    OOOO oXXXX OOOOOO",
"OOOOO XX.. OOOOOOOOO     OOOOOOO",
"OOOOOO    OOOOOOYOOOOOOOOOOOOOOO",
"OOOOOOOOOOOOOOOOYYOOOOOOOOOOOOOO",
"OOOOOOOOOOOOOOOOYYOOYOOOOOOAOOOO",
"OOOOOYOOOOOOOOOO0YAYYOOOOOAOAOOO",
"OOOOYOYOOOOOOOOOOAYYA0OOOOOAOOOO",
"OOOOOYOOOOOOOOOOOOAAOOOOOOOOOOOO"
};
