/* XPM */
static char *result[] = {
/* columns rows colors chars-per-pixel */
"32 32 5 1 ",
"  c #0F0B0D",
". c #29111F",
"X c #DEE472",
"o c #512D2F",
"O c white",
/* pixels */
"               ..               ",
"               ..               ",
"XXXXXXXXXXXXXX oo XXXXXXXXXXXXX ",
"XXXXXXXXXXXXXX oo XXXXXXXXXXXXX ",
"XXXXXXXXXXXXXX oo XXXXXXXXXXXXX ",
"XXXXXXXXXXXXXX oo XXXXXXXXXXXXX ",
"XXXXXXXXXXXXXX oo XXXXXXXXXXXXX ",
"XXXXXXXXXXXXXX oo XXXXXXXXXXXXX ",
"XXXXXXXXXXXXXX oo XXXXXXXXXXXXX ",
"XXXXXXXXXXXXXX oo XXXXXXXXXXXXX ",
"XXXXXXXXXXXXXX oo XXXXXXXXXXXXX ",
"XXXXXXXXXXXXXX oo XXXXXXXXXXXXX ",
"               oo               ",
"               oo               ",
"ooooooooooooooooooooooooooooooo.",
"ooooooooooooooooooooooooooooooo.",
"ooooooooooooooooooooooooooooooo.",
"ooooooooooooooooooooooooooooooo.",
"               oo               ",
"               oo               ",
"XXXXXXXXXXXXXX oo XXXXXXXXXXXXX ",
"XXXXXXXXXXXXXX oo XXXXXXXXXXXXX ",
"XXXXXXXXXXXXXX oo XXXXXXXXXXXXX ",
"XXXXXXXXXXXXXX oo XXXXXXXXXXXXX ",
"XXXXXXXXXXXXXX oo XXXXXXXXXXXXX ",
"XXXXXXXXXXXXXX oo XXXXXXXXXXXXX ",
"XXXXXXXXXXXXXX oo XXXXXXXXXXXXX ",
"XXXXXXXXXXXXXX oo XXXXXXXXXXXXX ",
"XXXXXXXXXXXXXX oo XXXXXXXXXXXXX ",
"XXXXXXXXXXXXXX oo XXXXXXXXXXXXX ",
"               ..               ",
"               ..               "
};
