/* XPM */
static char *result[] = {
/* columns rows colors chars-per-pixel */
"32 32 7 1 ",
"  c #C2986D",
". c #B08A63",
"X c #9E7C59",
"o c #3E734E",
"O c #4D9262",
"+ c #7AB055",
"@ c white",
/* pixels */
"  .XXXX.XXX    .X   X. .X.   .X ",
" .X....XXX.XX..XX...X..X.     X ",
".X.    .X. ..XX..XXXXXXXX.   .X ",
"XX.     X    X.  .XX....X....X.X",
"XX.    .X   .X....X.    .XXXX..X",
"XX.   .XX.  .XXXXXX      X... .X",
"XXX. .X..X..X....X.     .X     .",
"X..X.X.  .XX.    .X.   ..X.     ",
"X  .X.    .X.     .X...XX.X.   .",
"X   .X.    .X.     .XXX.. .X....",
".  ..X.....XX.     .X..    .XXXX",
"...XXXXXXXXXXX.   .XX.     .X..X",
"XXXX.....XXXXX.  .X..X.   .X. .X",
"...X.   .X....X..X....X. ..X..X.",
"   .XXXXX.    .XXX.. ..X.XXoXX. ",
"   .X...X.     .XX.   ..XoooX.. ",
"...XoX.XoX.....XoXX.....XoOOoXX.",
"XXooOoXoOooXXXoooXooXXoooOOOOooX",
"ooOOOOoOOOOoooOOOoOOooOOOOOOOOOo",
"OOOOOOOOOoOOOOOOOOOOOOOOOOOOOOOO",
"OOOOOOOOoOoOOOOOOOOOOOOOOOOOOOOO",
"OOOOOOOOOoOOOOOOOOOOOOOOOOOOOOOO",
"OOOOOOOOOOOOOOOOOOOOOOOOOOOOOOOO",
"OOOOOOOOOOOOOOOOOOOOOOOOOOOOOOOO",
"OOOOOOOOOOOOOO+OOOOOOOOOOOOOOOOO",
"OOOOOOOOOOOOO++OOOOOOOOOOOOOOOOO",
"OOOOOOOOOO+OO++OOOOOOOOOO+OOOOOO",
"OOOOOOOOOO++o+OOOOOOOOOOO+OOOOOO",
"OOOOOOOOOOo++oOOOOOOOOO+O+OOOOOO",
"OOOOOOOOOOOooOOOOOOOOOO+O+OOOOOO",
"OOOOOOOOOOOOOOOOOOOOOOO+OOOOOOOO",
"OOOOOOOOOOOOOOOOOOOOOOOOOOOOOOOO"
};
