/* XPM */
static char *result[] = {
/* columns rows colors chars-per-pixel */
"32 32 6 1 ",
"  c #C2986D",
". c #B08A63",
"X c #9E7C59",
"o c #3E734E",
"O c #4D9262",
"+ c white",
/* pixels */
"  .XXXX.XXX    .X   X. .X.   .X ",
" .X....XXX.XX..XX...X..X.     XX",
".X.    .X. ..XX..XXXXXXXX.   X .",
"XX.     X    X.  .XX....X....X  ",
"XX.    .X   .X....X.    .XXXX   ",
"XX.   .XX.  .XXXXXX      XXX.   ",
"XXX. .X..X..X....X.     XXXX.. .",
"X..X.X.  .XX.    .X.   .X. .XX.X",
"X  .X.    .X.     .X...X.   .XX.",
"X   .X.    .X.     .XXX.    .X. ",
".  ..X.....XX.     .XXX.    .X..",
"...XXXXXXXXXXX.   .XXXX.    .XXX",
"XXXX.....XXXXX.  .XXX..X.  .XX. ",
"...X.   .X....X..XXX.  .X.XXXX. ",
"   .XXXXX.    .XXXX.    .XX..X. ",
"   .X...X.     .XX.      .X. .XX",
"...XoX.XoX.....X.X.      .X. .X.",
"XXooOoXoOooXXXX. .X..    .X..X. ",
"ooOOOOoOOOOoooX.  .XX..  .XXXX. ",
"OOOOOOOOOOOOOoX.  .XXXX..X.. .X ",
"OOOOOOOOOOOOOoX.  .XXX.XX.   .X ",
"OOOOOOOOOOOOOOo.  .XX. .X.    .X",
"OOOOOOOOOOOOOOoX..XXX.  .X.  .XX",
"OOOOOOOOOOOOOOOoXX..X.   .XXXXXX",
"OOOOOOOOOOOOOOoX.X .X.   .X. .X.",
"OOOOOOOOOOOOOoX..X .X.. .X.   .X",
"OOOOOOOOOOOOOOoX.X .XXX.X.    .X",
"OOOOOOOOOOOOOOOoXX..X..X.     .X",
"OOOOOOOOOOOOOOoX..XXX. .X.    .X",
"OOOOOOOOOOOOOOo.  .X.   .X....X.",
"OOOOOOOOOOOOOoX.  .X.   .XXXXX. ",
"OOOOOOOOOOOOOoX.  .X..XXXXXXX.  "
};
