/* XPM */
static char *result[] = {
/* columns rows colors chars-per-pixel */
"32 32 6 1 ",
"  c #C2986D",
". c #B08A63",
"X c #9E7C59",
"o c #3E734E",
"O c #4D9262",
"+ c white",
/* pixels */
"  .XXXXXXX..X.  .XoOOOOOOOOOOOOO",
" .XXXXX.   .X.  .XoOOOOOOOOOOOOO",
".X....X.   .X.  .oOOOOOOOOOOOOOO",
"X.    .X. .XXX..XoOOOOOOOOOOOOOO",
"X.     .X..X..XXoOOOOOOOOOOOOOOO",
"X.    .X.XXX. X.XoOOOOOOOOOOOOOO",
"X.   .X. ..X. X..XoOOOOOOOOOOOOO",
".X. .X.   .X. X.XoOOOOOOOOOOOOOO",
"XXXXXX.   .X..XXoOOOOOOOOOOOOOOO",
"XX.  .X.  .XXX..XoOOOOOOOOOOOOOO",
"X.    .X. .XX.  .oOOOOOOOOOOOOOO",
" X.   .XX.XXX.  .XoOOOOOOOOOOOOO",
" X. ..X..XXXX.  .XoOOOOOOOOOOOOO",
" .XXXX.  ..XX.  .XoooOOOOoOOOOoo",
" .X..X.    ..X. .XXXXooOoXoOooXX",
".X. .X.      .X.X.....XoX.XoX...",
"XX. .X.      .XXX     .X...X.   ",
" .X..XX.    .XXXX.    .XXXXX.   ",
" .XXXX.X.  .XXX..X....X.   .X...",
" .XX.  .X..XXX.  .XXXXX.....XXXX",
"XXX.    .XXXX.   .XXXXXXXXXXX...",
"..X.    .XXX.     .XX.....X..  .",
" .X.    .XXX.     .X.    .X.   X",
".XX.   .X...X.     .X.    .X.  X",
"X.XX. .X.   .X.    .XX.  .X.X..X",
". ..XXX.     .X....X..X..X. .XXX",
"   .XXX      XXXXXX.  .XX.   .XX",
"   .XXX.    .X....X.   X.    .XX",
"   X...X....XX.  .X    X     .XX",
". X   .XXXXXXXX..XX.. .X.    .X.",
"XX     .X..X...XX..XX.XXX....X. ",
" X.   .X. .X   X.    XXX.XXXX.  "
};
