/* XPM */
static char *result[] = {
/* columns rows colors chars-per-pixel */
"32 32 7 1 ",
"  c #4D9262",
". c #3E734E",
"X c #7AB055",
"o c #9E7C59",
"O c #B08A63",
"+ c #C2986D",
"@ c white",
/* pixels */
"                                ",
"                      .         ",
"                     . .        ",
"                      .         ",
"                                ",
"                                ",
"                 X              ",
"                 XX             ",
"      X          XX  X          ",
"      X           X.XX          ",
"      X X         .XX.          ",
"      X X          ..           ",
"        X                       ",
".         ..  .   ...    .    ..",
"o..    ...oo..o...ooo.. .o. ..oo",
"Ooo.  .oOOOOOoo.oOOOOOo.oOo.oOOO",
"+OOo...oOO+++OooO+++++OoOOOoO+++",
"+Ooo.ooOoOO+OOoooO++++OoooooO+++",
"OoOOoOO+OoOOOOoOOoOOOOoO+++OoOOO",
"oO+OoO+++OoOOoO++OoooooOOOOOoooo",
"oOOoO+++++OooO+++OoooooooooooOOO",
"ooooO++++OOoO+++++OooOOOOOoOO++O",
"OOOOoO+OOoooO+++++OoO++++OoO+++o",
"O+++OoOooOOOoO+++++OoO++++OoO++o",
"+++++OoOO+++OoO++++OooO++OoOoOOo",
"O+++++oO+++++OoOOOOoOOoOOoO+Oooo",
"oO+OOOo++++++ooooooO++OooO+++Ooo",
"oOOooooO++++OoOOOOoO+++oO++++Ooo",
"oOoOOOOoOOOOooO++Oo++++o+++++Ooo",
"+oO+++OooooooooOOooOO+OoO++++OoO",
"+o+++++OoOOoOOOooOOooOoooOOOOoO+",
"+oO+++OoO+Oo+++oO++++oooOooooO++"
};
