/* XPM */
static char *result[] = {
/* columns rows colors chars-per-pixel */
"32 32 7 1 ",
"  c #C2986D",
". c #B08A63",
"X c #9E7C59",
"o c #3E734E",
"O c #4D9262",
"+ c #7AB055",
"@ c white",
/* pixels */
"  .XXXXXXX..X.  .XoOOOOOOOOOOOOO",
" .XXXXX.   .X.  .XoOOOOOOOOOOOOO",
".X....X.   .X.  .oOOOOOOOOOOOOOO",
"X.    .X. .XXX..XoOOOOOOOOOOOOOO",
"X.     .X..X..XXoOOOOOOOOOOOOOOO",
"X.    .X.XXX. X.XoOOOOOOOOOOOOOO",
"X.   .X. ..X. X..XoOOOOOOOOOOOOO",
".X. .X.   .X. X.XoOOOOOOOOOOOOOO",
"XXXXXX.   .X..XXoOOOOO+OOOOOOOOO",
"XX.  .X.  .XXX..XoOOOO+OOOOOOOOO",
"X.    .X. .XX.  .oOOOO+O+OOOOOOO",
" X.   .XX.XXX.  .XoOOO+O+OOOOOOO",
" X. ..X..XXXX.  .XoOOOOO+OOOOOOO",
" .XXXX.  ..XX.  .XoOOOOOOOOOOOOO",
" .X..X.    ..X. .oOOOOOOOOOOOOOO",
".X. .X.      .X.XoOOOOOOOOOOOOOO",
"XX. .X.      .XXooOOOOOOOOOOOOO+",
" .X..XX.    .XXXXXoOOOOOOOOOOOOO",
" .XXXX.X.  .X...XoOOOOOOOOOOOOOO",
" .XX.  .X..X... .oOOOOOOOOOOOOOO",
"XXX.    .XXX..  .XoOOOOOOOOOOOOO",
"..X.    .X..X.. .XoOOOOOOOOOOOOO",
" .X.    .X. .X...oOOO++OOOOOOOOO",
".XX.   .X.   .X..oOOOO++O++OOOOO",
"X.XX. ..X.    .XXoOOOOO+++OOOOOO",
". ..XXXX.    .XooOOOOOOo+oOOOOOO",
"   .X. .X.  ..XoOOOOOOOooOOOOOOO",
"   .X.  .X..XXooOOOOOOOOOOOOOOOO",
"   .X.   .XX..XXoOOOOOOOOOOOOOOO",
". .X.    .X. .X.XoOOOOOOOOOOOOOO",
"XXX...   .X..X..XoOOOOOOOOOOOOOO",
"   XXX. ..XXX.  .XoOOOOOOOOOOOOO"
};
