/* XPM */
static char *result[] = {
/* columns rows colors chars-per-pixel */
"32 32 4 1 ",
"  c #C2986D",
". c #B08A63",
"X c #9E7C59",
"o c white",
/* pixels */
" .X. .X.   X  X.      X. ..X.   ",
".XXX.X.    X. X      .X.  .XX.  ",
".X..XX    .X. X.  ....X.  .XX...",
"X.  .X.  .XXX.XX..XXXXXX...XXXXX",
"X.  .XX...XXXX..XXX.....XXX..XXX",
"XX..XXXXXX..X.  ..X.   .X.   .XX",
".XXX....X. .X.    .X    X.....X.",
".X..   .X   .X.   .X   .XXXXXXX ",
".X.     X. ..XX.  .X....XXX...X.",
"XX.     .X.XXXXX..X.XXXX.XX.  .X",
" X.     .XX..XXXXX.  .X. .X.   X",
"  X......X.  ..XXX....X   .X  .X",
"..XXXXXXX.     .XXXXXX. ...X..XX",
"XXXX...X.  .   .X.....X.XXXXXX..",
"..XX. .X..  .. .X.    .X....X.  ",
"  .X. .X.    ..X      .X. .X.   ",
"  .X...X..   .X..     .X...X.   ",
" .XXXXX.X.. ..XXX.    .XXXXX.   ",
".X..X.. .X....X..X....X.   .X...",
"X. .X.   .X..X.  .XXXXX.....XXXX",
"X..X.     .XX.   .XXXXXXXXXXX...",
"XXXX.    ..X.     .XX.....X..  .",
"....X. ..XXX.     .X.    .X.   X",
".   .X.XX...X.     .X.    .X.  X",
"     .X..   .X.    .XX.  .X.X..X",
".     X.     .X....X..X..X. .XXX",
"X. ...X      XXXXXX.  .XX.   .XX",
"X..XXXX.    .X....X.   X.    .XX",
"X.X....X....XX.  .X    X     .XX",
" X.   .XXXXXXXX..XX.. .X.    .X.",
" X     .X..X...XX..XX.XXX....X. ",
" X.   .X. .X   X.    XXX.XXXX.  "
};
