/* XPM */
static char *result[] = {
/* columns rows colors chars-per-pixel */
"32 32 7 1 ",
"  c #4D9262",
". c #3E734E",
"X c #9E7C59",
"o c #B08A63",
"O c #C2986D",
"+ c #7AB055",
"@ c white",
/* pixels */
"             .XoOOoXXXooOoXXXOOO",
"              .XooXooXoOOOoooXXX",
"              .XoXoOoXoOOOOoXoOo",
"               .XXooXXoOOOoXoOOO",
"                ..XXooXoOOoXoOOO",
"                .XooOOoXoOoXoOOO",
"               ..XoOOOOoXXXXooOo",
"              .XXoOOOOoXooOoXXoX",
"            + .ooXoOOOoXoOOOoXXo",
"          + + .oooXoOoXoOOOOoXoO",
"          + +.XoOooXooXoOOOOoXoo",
"          +  .XoOOooXXXoOOOOoXXX",
"              .oOoooXooXoOOoXXoO",
"              .XoooXoOOoXoXXXXoO",
"             .XXXXXoOOOOoXXooXoO",
"+             ..XXoOOOOOOoXoOoXX",
" +            .XoXoOOOOOOoXoOoXo",
"+             .oOoXooOOOOoXooXoO",
"             .XoOOoXXooOOoXXXXoO",
"             .XoOOoXXXXooXooOoXO",
"             .XoOOoXXXoXXoOOOoXO",
"              .oOOoXXoOoXoOOOOoX",
"              .XooXXXoOOoXoOOoXX",
"               .XXooXoOOOoXXXXXX",
"     ++       .XoXOoXoOOOoXoOoXo",
"      ++ ++  .XooXOoXooOoXoOOOoX",
"       +++    .XoXOoXXXoXoOOOOoX",
"       .+.     .XXooXooXoOOOOOoX",
"       ..     .XooXXXoOoXoOOOOoX",
"              .oOOoXoOOOoXooooXo",
"             .XoOOoXoOOOoXXXXXoO",
"             .XoOOoXooXXXXXXXoOO"
};
